<svg width="213" height="41" viewBox="0 0 213 41" fill="none" xmlns="http://www.w3.org/2000/svg">
<path d="M193.754 22.0781C194.591 25.1051 196.862 26.6187 200.565 26.6187C202.948 26.6187 204.751 25.8136 205.975 24.2034L210.999 27.1017C208.616 30.5474 205.106 32.2703 200.468 32.2703C196.475 32.2703 193.271 31.0626 190.856 28.6474C188.441 26.2322 187.233 23.1891 187.233 19.5179C187.233 15.879 188.425 12.852 190.808 10.4367C193.191 7.98933 196.25 6.76562 199.985 6.76562C203.528 6.76562 206.442 7.98933 208.728 10.4367C211.047 12.8842 212.206 15.9112 212.206 19.5179C212.206 20.323 212.126 21.1764 211.965 22.0781H193.754ZM193.658 17.2476H205.975C205.621 15.6053 204.88 14.3816 203.753 13.5765C202.658 12.7714 201.402 12.3689 199.985 12.3689C198.311 12.3689 196.926 12.8037 195.831 13.6731C194.736 14.5104 194.012 15.7019 193.658 17.2476Z" fill="white"/>
<path d="M185.333 13.432H179.875V23.4793C179.875 24.3165 180.084 24.9284 180.503 25.3148C180.922 25.7013 181.533 25.9267 182.338 25.9911C183.144 26.0233 184.142 26.0072 185.333 25.9428V31.5944C181.05 32.0774 178.023 31.6749 176.252 30.3868C174.513 29.0987 173.644 26.7962 173.644 23.4793V13.432L173.644 7.44228L173.644 2.56355L179.875 0.679688V7.44228H185.333V13.432Z" fill="white"/>
<path d="M135.194 8.96849C138.179 8.96849 140.721 10.1031 142.819 12.3724C144.947 14.6122 146.011 17.3677 146.011 20.639C146.011 23.9103 144.947 26.6805 142.819 28.9498C140.721 31.1896 138.179 32.3095 135.194 32.3095C132.091 32.3095 129.698 31.2338 128.013 29.0824V31.6906H122.295V0.746094H128.013V12.1956C129.698 10.0442 132.091 8.96849 135.194 8.96849ZM129.742 25.1481C130.894 26.2974 132.357 26.8721 134.13 26.8721C135.904 26.8721 137.366 26.2974 138.519 25.1481C139.701 23.9692 140.292 22.4662 140.292 20.639C140.292 18.8118 139.701 17.3235 138.519 16.1741C137.366 14.9953 135.904 14.4059 134.13 14.4059C132.357 14.4059 130.894 14.9953 129.742 16.1741C128.589 17.3235 128.013 18.8118 128.013 20.639C128.013 22.4662 128.589 23.9692 129.742 25.1481Z" fill="white"/>
<path d="M109.271 6.76562C111.912 6.76562 114.086 7.6512 115.792 9.42236C117.531 11.1935 118.401 13.6409 118.401 16.7646V31.594H112.17V17.5375C112.17 15.9273 111.735 14.7036 110.865 13.8663C109.996 12.9969 108.837 12.5621 107.387 12.5621C105.777 12.5621 104.489 13.0613 103.523 14.0596C102.557 15.0578 102.074 16.5553 102.074 18.5519V31.594H95.8427V7.44188H102.074V10.1469C103.587 7.89272 105.987 6.76562 109.271 6.76562Z" fill="white"/>
<path d="M74.9187 22.0781C75.7559 25.1051 78.0262 26.6187 81.7295 26.6187C84.1126 26.6187 85.9159 25.8136 87.1396 24.2034L92.1633 27.1017C89.7803 30.5474 86.2701 32.2703 81.6329 32.2703C77.6398 32.2703 74.4356 31.0626 72.0204 28.6474C69.6052 26.2322 68.3976 23.1891 68.3976 19.5179C68.3976 15.879 69.5891 12.852 71.9721 10.4367C74.3551 7.98933 77.4144 6.76562 81.1499 6.76562C84.6922 6.76562 87.6066 7.98933 89.893 10.4367C92.2116 12.8842 93.3709 15.9112 93.3709 19.5179C93.3709 20.323 93.2904 21.1764 93.1293 22.0781H74.9187ZM74.822 17.2476H87.1396C86.7854 15.6053 86.0447 14.3816 84.9176 13.5765C83.8227 12.7714 82.5668 12.3689 81.1499 12.3689C79.4754 12.3689 78.0906 12.8037 76.9957 13.6731C75.9008 14.5104 75.1763 15.7019 74.822 17.2476Z" fill="white"/>
<path d="M66.4978 13.432H61.0394V23.4793C61.0394 24.3166 61.2487 24.9284 61.6674 25.3148C62.086 25.7013 62.6979 25.9267 63.5029 25.9911C64.308 26.0233 65.3063 26.0072 66.4978 25.9428V31.5944C62.2148 32.0774 59.1877 31.6749 57.4166 30.3868C55.6776 29.0987 54.8082 26.7962 54.8082 23.4793V13.432L54.8081 7.44228L54.8082 2.56355L61.0394 0.679688V7.44228H66.4978V13.432Z" fill="white"/>
<path d="M171.644 7.54688L157.446 40.6797H151.328L156.245 29.8192L147.056 7.54688H153.555L159.474 23.5087L165.476 7.54688H171.644Z" fill="white"/>
<path d="M-6.10352e-05 6.54313L19.3234 0.746094L19.3234 31.8393H-6.10352e-05V6.54313Z" fill="#2FC7B9"/>
<circle cx="31.4444" cy="19.6504" r="12.1211" fill="#FD5B20"/>
</svg>
