<svg width="213" height="40" viewBox="0 0 213 40" fill="none" xmlns="http://www.w3.org/2000/svg">
<path d="M193.754 21.3984C194.591 24.4254 196.862 25.939 200.565 25.939C202.948 25.939 204.751 25.1339 205.975 23.5238L210.999 26.422C208.616 29.8677 205.106 31.5906 200.468 31.5906C196.475 31.5906 193.271 30.383 190.856 27.9677C188.441 25.5525 187.233 22.5094 187.233 18.8383C187.233 15.1993 188.425 12.1723 190.808 9.75706C193.191 7.30964 196.25 6.08594 199.985 6.08594C203.528 6.08594 206.442 7.30964 208.728 9.75706C211.047 12.2045 212.206 15.2315 212.206 18.8383C212.206 19.6433 212.126 20.4967 211.965 21.3984H193.754ZM193.658 16.568H205.975C205.621 14.9256 204.88 13.7019 203.753 12.8968C202.658 12.0918 201.402 11.6892 199.985 11.6892C198.311 11.6892 196.926 12.124 195.831 12.9934C194.736 13.8307 194.012 15.0222 193.658 16.568Z" fill="#2B2B2B"/>
<path d="M185.333 12.7523H179.875V22.7996C179.875 23.6369 180.084 24.2487 180.503 24.6352C180.922 25.0216 181.533 25.247 182.338 25.3114C183.144 25.3436 184.142 25.3275 185.333 25.2631V30.9147C181.05 31.3977 178.023 30.9952 176.252 29.7071C174.513 28.419 173.644 26.1165 173.644 22.7996V12.7523L173.644 6.76259L173.644 1.88387L179.875 0V6.76259H185.333V12.7523Z" fill="#2B2B2B"/>
<path d="M135.194 8.28881C138.179 8.28881 140.721 9.42344 142.819 11.6927C144.947 13.9325 146.011 16.688 146.011 19.9593C146.011 23.2306 144.947 26.0009 142.819 28.2701C140.721 30.5099 138.179 31.6298 135.194 31.6298C132.091 31.6298 129.698 30.5541 128.013 28.4027V31.0109H122.295V0.0664062H128.013V11.5159C129.698 9.3645 132.091 8.28881 135.194 8.28881ZM129.742 24.4684C130.894 25.6177 132.357 26.1924 134.13 26.1924C135.904 26.1924 137.366 25.6177 138.519 24.4684C139.701 23.2895 140.292 21.7865 140.292 19.9593C140.292 18.1321 139.701 16.6438 138.519 15.4945C137.366 14.3156 135.904 13.7262 134.13 13.7262C132.357 13.7262 130.894 14.3156 129.742 15.4945C128.589 16.6438 128.013 18.1321 128.013 19.9593C128.013 21.7865 128.589 23.2895 129.742 24.4684Z" fill="#2B2B2B"/>
<path d="M109.271 6.08594C111.912 6.08594 114.086 6.97151 115.792 8.74267C117.531 10.5138 118.401 12.9612 118.401 16.0849V30.9143H112.17V16.8578C112.17 15.2476 111.735 14.0239 110.865 13.1867C109.996 12.3172 108.837 11.8824 107.387 11.8824C105.777 11.8824 104.489 12.3816 103.523 13.3799C102.557 14.3782 102.074 15.8756 102.074 17.8722V30.9143H95.8427V6.7622H102.074V9.46723C103.587 7.21304 105.987 6.08594 109.271 6.08594Z" fill="#2B2B2B"/>
<path d="M74.9187 21.3984C75.7559 24.4254 78.0262 25.939 81.7295 25.939C84.1126 25.939 85.9159 25.1339 87.1396 23.5238L92.1633 26.422C89.7803 29.8677 86.2701 31.5906 81.6329 31.5906C77.6398 31.5906 74.4356 30.383 72.0204 27.9677C69.6052 25.5525 68.3976 22.5094 68.3976 18.8383C68.3976 15.1993 69.5891 12.1723 71.9721 9.75706C74.3551 7.30964 77.4144 6.08594 81.1499 6.08594C84.6922 6.08594 87.6066 7.30964 89.893 9.75706C92.2116 12.2045 93.3709 15.2315 93.3709 18.8383C93.3709 19.6433 93.2904 20.4967 93.1293 21.3984H74.9187ZM74.822 16.568H87.1396C86.7854 14.9256 86.0447 13.7019 84.9176 12.8968C83.8227 12.0918 82.5668 11.6892 81.1499 11.6892C79.4754 11.6892 78.0906 12.124 76.9957 12.9934C75.9008 13.8307 75.1763 15.0222 74.822 16.568Z" fill="#2B2B2B"/>
<path d="M66.4978 12.7523H61.0394V22.7996C61.0394 23.6369 61.2487 24.2487 61.6674 24.6352C62.086 25.0216 62.6979 25.247 63.5029 25.3114C64.308 25.3436 65.3063 25.3275 66.4978 25.2631V30.9147C62.2148 31.3977 59.1877 30.9952 57.4166 29.7071C55.6776 28.419 54.8082 26.1165 54.8082 22.7996V12.7523L54.8081 6.76259L54.8082 1.88387L61.0394 0V6.76259H66.4978V12.7523Z" fill="#2B2B2B"/>
<path d="M171.644 6.86719L157.446 40H151.328L156.245 29.1395L147.056 6.86719H153.555L159.474 22.829L165.476 6.86719H171.644Z" fill="#2B2B2B"/>
<path d="M-6.10352e-05 5.86344L19.3234 0.0664062L19.3234 31.1596H-6.10352e-05V5.86344Z" fill="#2FC7B9"/>
<circle cx="31.4444" cy="18.9707" r="12.1211" fill="#FD5B20"/>
</svg>
